<svg width="28" height="28" viewBox="0 0 28 28" fill="none" xmlns="http://www.w3.org/2000/svg">
<path d="M13.0572 20.2761C13.1807 20.4003 13.3276 20.4989 13.4894 20.5662C13.6511 20.6335 13.8246 20.6681 13.9998 20.6681C14.175 20.6681 14.3485 20.6335 14.5103 20.5662C14.6721 20.4989 14.819 20.4003 14.9425 20.2761L20.5998 14.6187C20.7272 14.4958 20.8288 14.3486 20.8986 14.186C20.9685 14.0233 21.0053 13.8483 21.0068 13.6713C21.0084 13.4942 20.9746 13.3187 20.9076 13.1548C20.8406 12.9909 20.7416 12.8421 20.6164 12.7169C20.4912 12.5917 20.3423 12.4927 20.1784 12.4257C20.0146 12.3586 19.839 12.3249 19.662 12.3264C19.4849 12.328 19.31 12.3647 19.1473 12.4346C18.9846 12.5045 18.8375 12.6061 18.7145 12.7334L15.3332 16.1147V8.66675C15.3332 8.31313 15.1927 7.97399 14.9426 7.72394C14.6926 7.47389 14.3535 7.33342 13.9998 7.33342C13.6462 7.33342 13.3071 7.47389 13.057 7.72394C12.807 7.97399 12.6665 8.31313 12.6665 8.66675V16.1147L9.28517 12.7334C9.16218 12.6061 9.01505 12.5045 8.85238 12.4346C8.6897 12.3647 8.51474 12.328 8.33771 12.3264C8.16067 12.3249 7.98509 12.3586 7.82123 12.4257C7.65737 12.4927 7.5085 12.5917 7.38331 12.7169C7.25812 12.8421 7.15912 12.9909 7.09207 13.1548C7.02503 13.3187 6.9913 13.4942 6.99284 13.6713C6.99438 13.8483 7.03116 14.0233 7.10104 14.186C7.17091 14.3486 7.27249 14.4958 7.39984 14.6187L13.0572 20.2761ZM13.9998 27.3334C6.63584 27.3334 0.666504 21.3641 0.666504 14.0001C0.666504 6.63608 6.63584 0.666748 13.9998 0.666748C21.3638 0.666748 27.3332 6.63608 27.3332 14.0001C27.3332 21.3641 21.3638 27.3334 13.9998 27.3334Z" fill="#988265"/>
</svg>
