<svg width="22" height="22" viewBox="0 0 22 22" fill="none" xmlns="http://www.w3.org/2000/svg">
<path fill-rule="evenodd" clip-rule="evenodd" d="M16.2 0H5.4C2.43027 0 0 2.42919 0 5.4V16.2C0 19.1697 2.43027 21.6 5.4 21.6H16.2C19.1697 21.6 21.6 19.1697 21.6 16.2V5.4C21.6 2.42919 19.1697 0 16.2 0ZM10.8 15.2998C8.3144 15.2998 6.29993 13.2845 6.29993 10.8C6.29993 8.31438 8.3144 6.29991 10.8 6.29991C13.2846 6.29991 15.3001 8.31438 15.3001 10.8C15.3001 13.2845 13.2846 15.2998 10.8 15.2998ZM15.2998 4.94961C15.2998 5.69508 15.9035 6.29961 16.6498 6.29961C17.3961 6.29961 17.9998 5.69508 17.9998 4.94961C17.9998 4.20414 17.3961 3.59961 16.6498 3.59961C15.9035 3.59961 15.2998 4.20414 15.2998 4.94961Z" fill="#0A142F"/>
</svg>
