<svg width="24" height="20" viewBox="0 0 24 20" fill="none" xmlns="http://www.w3.org/2000/svg">
<path d="M21.1596 4.7736C21.1752 4.9836 21.1752 5.1924 21.1752 5.4012C21.1752 11.7912 16.3116 19.1544 7.4232 19.1544C4.6848 19.1544 2.1408 18.3612 0 16.9836C0.3888 17.028 0.7632 17.0436 1.1676 17.0436C3.4272 17.0436 5.5068 16.2804 7.1688 14.9784C5.0436 14.934 3.2628 13.542 2.6484 11.6268C2.9472 11.6712 3.2472 11.7012 3.5616 11.7012C3.9948 11.7012 4.4304 11.6412 4.8348 11.5368C2.6184 11.088 0.9588 9.1428 0.9588 6.7932V6.7332C1.6032 7.092 2.3508 7.3164 3.1428 7.3464C1.8408 6.48 0.9876 4.998 0.9876 3.3216C0.9876 2.424 1.2264 1.6008 1.6452 0.8832C4.0248 3.8148 7.602 5.7312 11.6124 5.9412C11.538 5.5812 11.4924 5.208 11.4924 4.8336C11.4924 2.1696 13.6476 0 16.326 0C17.718 0 18.9744 0.5832 19.8576 1.5264C20.9496 1.3164 21.996 0.912 22.9248 0.3588C22.566 1.4808 21.8016 2.424 20.7996 3.0228C21.7728 2.9172 22.716 2.6484 23.5824 2.274C22.9248 3.2316 22.1028 4.0848 21.1596 4.7736Z" fill="#0A142F"/>
</svg>
