<svg width="20" height="20" viewBox="0 0 20 20" fill="none" xmlns="http://www.w3.org/2000/svg">
<mask id="path-1-outside-1_7286_91" maskUnits="userSpaceOnUse" x="-0.27002" y="-0.367676" width="21" height="21" fill="black">
<rect fill="white" x="-0.27002" y="-0.367676" width="21" height="21"/>
<path fill-rule="evenodd" clip-rule="evenodd" d="M11.2656 18.1583L10.3965 19.0274C10.164 19.2598 9.80075 19.2422 9.56833 19.0274C9.33591 18.8145 9.35153 18.4161 9.56833 18.1993L9.58396 18.1836C9.81443 17.9454 10.0501 17.7123 10.2858 17.4792C10.4036 17.3627 10.5215 17.2461 10.6386 17.129L12.8047 14.9629L15.3242 12.4434L17.2676 10.5H1.31638C0.988253 10.5 0.744113 10.2325 0.730441 9.9141C0.716769 9.59769 1.00974 9.32816 1.31638 9.32816H1.34568C1.49549 9.32686 1.64617 9.32729 1.79656 9.32773C1.87164 9.32794 1.94666 9.32816 2.02146 9.32816H17.2673C17.244 9.3047 17.2206 9.28126 17.1972 9.25786L15.0312 7.09185L12.5117 4.57232L10.4375 2.4981L9.56833 1.62896C9.33591 1.39849 9.35349 1.03521 9.56833 0.800832C9.78122 0.56841 10.1797 0.584035 10.3965 0.800832L10.4121 0.816457C10.6504 1.04693 10.8834 1.2826 11.1165 1.51828C11.233 1.63612 11.3496 1.75396 11.4668 1.87114L13.6328 4.03716L16.1523 6.55669L18.2265 8.63091L19.0957 9.50005C19.1591 9.56347 19.2046 9.63919 19.2322 9.72026C19.2546 9.7812 19.2681 9.8465 19.2715 9.9141C19.2785 10.077 19.2043 10.2275 19.0887 10.3351L19.0801 10.3438C18.8496 10.5821 18.6139 10.8152 18.3782 11.0482C18.2604 11.1648 18.1426 11.2813 18.0254 11.3985L15.8593 13.5645L13.3398 16.084L11.2656 18.1583Z"/>
</mask>
<path fill-rule="evenodd" clip-rule="evenodd" d="M11.2656 18.1583L10.3965 19.0274C10.164 19.2598 9.80075 19.2422 9.56833 19.0274C9.33591 18.8145 9.35153 18.4161 9.56833 18.1993L9.58396 18.1836C9.81443 17.9454 10.0501 17.7123 10.2858 17.4792C10.4036 17.3627 10.5215 17.2461 10.6386 17.129L12.8047 14.9629L15.3242 12.4434L17.2676 10.5H1.31638C0.988253 10.5 0.744113 10.2325 0.730441 9.9141C0.716769 9.59769 1.00974 9.32816 1.31638 9.32816H1.34568C1.49549 9.32686 1.64617 9.32729 1.79656 9.32773C1.87164 9.32794 1.94666 9.32816 2.02146 9.32816H17.2673C17.244 9.3047 17.2206 9.28126 17.1972 9.25786L15.0312 7.09185L12.5117 4.57232L10.4375 2.4981L9.56833 1.62896C9.33591 1.39849 9.35349 1.03521 9.56833 0.800832C9.78122 0.56841 10.1797 0.584035 10.3965 0.800832L10.4121 0.816457C10.6504 1.04693 10.8834 1.2826 11.1165 1.51828C11.233 1.63612 11.3496 1.75396 11.4668 1.87114L13.6328 4.03716L16.1523 6.55669L18.2265 8.63091L19.0957 9.50005C19.1591 9.56347 19.2046 9.63919 19.2322 9.72026C19.2546 9.7812 19.2681 9.8465 19.2715 9.9141C19.2785 10.077 19.2043 10.2275 19.0887 10.3351L19.0801 10.3438C18.8496 10.5821 18.6139 10.8152 18.3782 11.0482C18.2604 11.1648 18.1426 11.2813 18.0254 11.3985L15.8593 13.5645L13.3398 16.084L11.2656 18.1583Z" fill="#0B0A0A"/>
<path d="M11.2656 18.1583L10.912 17.8047H10.912L11.2656 18.1583ZM9.56833 19.0274L9.90773 18.6602L9.90605 18.6587L9.56833 19.0274ZM9.56833 18.1993L9.21479 17.8457L9.21478 17.8457L9.56833 18.1993ZM9.58396 18.1836L9.93755 18.5373L9.94335 18.5313L9.58396 18.1836ZM10.2858 17.4792L10.6374 17.8347L10.6374 17.8347L10.2858 17.4792ZM10.6386 17.129L10.9922 17.4825L10.6386 17.129ZM12.8047 14.9629L12.4511 14.6094V14.6094L12.8047 14.9629ZM15.3242 12.4434L14.9706 12.0899L15.3242 12.4434ZM17.2676 10.5L17.6211 10.8536L18.4747 10H17.2676V10.5ZM0.730441 9.9141L1.22998 9.89264L1.22997 9.89251L0.730441 9.9141ZM1.34568 9.32816V9.82818L1.35002 9.82814L1.34568 9.32816ZM1.79656 9.32773L1.79511 9.82772H1.79512L1.79656 9.32773ZM17.2673 9.32816V9.82816H18.4699L17.6218 8.97555L17.2673 9.32816ZM17.1972 9.25786L17.5508 8.90431L17.1972 9.25786ZM15.0312 7.09185L14.6777 7.4454L15.0312 7.09185ZM12.5117 4.57232L12.1581 4.92587L12.5117 4.57232ZM10.4375 2.4981L10.791 2.14454L10.791 2.14454L10.4375 2.4981ZM9.56833 1.62896L9.92189 1.2754L9.92039 1.27392L9.56833 1.62896ZM9.56833 0.800832L9.93691 1.13869L9.93704 1.13855L9.56833 0.800832ZM10.3965 0.800832L10.0429 1.15439L10.0429 1.15439L10.3965 0.800832ZM10.4121 0.816457L10.0585 1.17006L10.0645 1.17585L10.4121 0.816457ZM11.1165 1.51828L11.472 1.1667L11.472 1.1667L11.1165 1.51828ZM11.4668 1.87114L11.1132 2.2247L11.4668 1.87114ZM13.6328 4.03716L13.9863 3.68361V3.68361L13.6328 4.03716ZM16.1523 6.55669L15.7988 6.91025L16.1523 6.55669ZM19.2322 9.72026L18.7588 9.88148L18.7629 9.89275L19.2322 9.72026ZM19.2715 9.9141L19.771 9.89251L19.7709 9.88959L19.2715 9.9141ZM19.0887 10.3351L18.7478 9.96934L18.7414 9.97535L18.7352 9.98158L19.0887 10.3351ZM19.0801 10.3438L18.7264 9.9902L18.7207 9.99619L19.0801 10.3438ZM18.3782 11.0482L18.0266 10.6927V10.6927L18.3782 11.0482ZM18.0254 11.3985L17.6718 11.0449L18.0254 11.3985ZM15.8593 13.5645L16.2129 13.9181L15.8593 13.5645ZM13.3398 16.084L13.6934 16.4376H13.6934L13.3398 16.084ZM10.75 19.3809L11.6192 18.5118L10.912 17.8047L10.0429 18.6738L10.75 19.3809ZM9.22894 19.3946C9.63476 19.7697 10.3056 19.8253 10.75 19.3809L10.0429 18.6738C10.0276 18.6891 10.0113 18.6955 9.98977 18.6952C9.96485 18.6948 9.93396 18.6845 9.90773 18.6602L9.22894 19.3946ZM9.21478 17.8457C8.82065 18.2398 8.76399 18.9687 9.23061 19.3961L9.90605 18.6587C9.91205 18.6642 9.89938 18.6571 9.89983 18.6212C9.90004 18.6047 9.90339 18.5885 9.90875 18.5751C9.91405 18.5618 9.91967 18.555 9.92189 18.5528L9.21478 17.8457ZM9.23042 17.8301L9.21479 17.8457L9.92187 18.5528L9.9375 18.5372L9.23042 17.8301ZM9.9342 17.1237C9.69918 17.3561 9.45954 17.5931 9.22456 17.836L9.94335 18.5313C10.1693 18.2976 10.401 18.0685 10.6374 17.8347L9.9342 17.1237ZM10.2851 16.7754C10.1691 16.8914 10.0522 17.007 9.9342 17.1237L10.6374 17.8347C10.755 17.7184 10.8739 17.6008 10.9922 17.4825L10.2851 16.7754ZM12.4511 14.6094L10.2851 16.7754L10.9922 17.4825L13.1582 15.3165L12.4511 14.6094ZM14.9706 12.0899L12.4511 14.6094L13.1582 15.3165L15.6777 12.797L14.9706 12.0899ZM16.914 10.1465L14.9706 12.0899L15.6777 12.797L17.6211 10.8536L16.914 10.1465ZM1.31638 11H17.2676V10H1.31638V11ZM0.230901 9.93555C0.254636 10.4882 0.688402 11 1.31638 11V10C1.29442 10 1.27861 9.99295 1.26393 9.97785C1.24692 9.96036 1.23162 9.9308 1.22998 9.89264L0.230901 9.93555ZM1.31638 8.82816C0.759521 8.82816 0.203513 9.3017 0.230907 9.93568L1.22997 9.89251C1.23027 9.89935 1.22675 9.88539 1.25204 9.86077C1.26369 9.84943 1.27744 9.84039 1.29079 9.83467C1.30397 9.82901 1.3129 9.82816 1.31638 9.82816V8.82816ZM1.34568 8.82816H1.31638V9.82816H1.34568V8.82816ZM1.798 8.82773C1.6481 8.82729 1.49452 8.82685 1.34133 8.82818L1.35002 9.82814C1.49645 9.82687 1.64423 9.82729 1.79511 9.82772L1.798 8.82773ZM2.02146 8.82816C1.9475 8.82816 1.87321 8.82794 1.798 8.82773L1.79512 9.82772C1.87008 9.82794 1.94582 9.82816 2.02146 9.82816V8.82816ZM17.2673 8.82816H2.02146V9.82816H17.2673V8.82816ZM16.8437 9.61142C16.8667 9.63447 16.8898 9.65759 16.9128 9.68077L17.6218 8.97555C17.5982 8.95181 17.5745 8.92805 17.5508 8.90431L16.8437 9.61142ZM14.6777 7.4454L16.8437 9.61142L17.5508 8.90431L15.3848 6.7383L14.6777 7.4454ZM12.1581 4.92587L14.6777 7.4454L15.3848 6.7383L12.8652 4.21876L12.1581 4.92587ZM10.0839 2.85165L12.1581 4.92587L12.8652 4.21876L10.791 2.14454L10.0839 2.85165ZM9.21478 1.98251L10.0839 2.85165L10.791 2.14454L9.92188 1.2754L9.21478 1.98251ZM9.19975 0.46297C8.82806 0.868451 8.76836 1.53985 9.21627 1.984L9.92039 1.27392C9.90652 1.26016 9.90024 1.24523 9.90055 1.22374C9.90092 1.19872 9.91136 1.16656 9.93691 1.13869L9.19975 0.46297ZM10.75 0.447279C10.3559 0.0531531 9.62703 -0.00350755 9.19963 0.46311L9.93704 1.13855C9.93155 1.14455 9.93859 1.13188 9.97456 1.13233C9.99099 1.13254 10.0072 1.13589 10.0207 1.14125C10.034 1.14655 10.0407 1.15217 10.0429 1.15439L10.75 0.447279ZM10.7656 0.462904L10.75 0.447279L10.0429 1.15439L10.0585 1.17001L10.7656 0.462904ZM11.472 1.1667C11.2396 0.931677 11.0026 0.692036 10.7597 0.457061L10.0645 1.17585C10.2981 1.40182 10.5273 1.63353 10.761 1.86986L11.472 1.1667ZM11.8203 1.51759C11.7043 1.40155 11.5887 1.2847 11.472 1.1667L10.761 1.86986C10.8774 1.98754 10.9949 2.10636 11.1132 2.2247L11.8203 1.51759ZM13.9863 3.68361L11.8203 1.51759L11.1132 2.2247L13.2792 4.39071L13.9863 3.68361ZM16.5059 6.20314L13.9863 3.68361L13.2792 4.39071L15.7988 6.91025L16.5059 6.20314ZM18.5801 8.27736L16.5059 6.20314L15.7988 6.91025L17.873 8.98446L18.5801 8.27736ZM19.4492 9.1465L18.5801 8.27736L17.873 8.98446L18.7421 9.85361L19.4492 9.1465ZM19.7055 9.55909C19.6544 9.40904 19.5693 9.26657 19.4492 9.1465L18.7421 9.85361C18.7489 9.86037 18.7548 9.86933 18.7589 9.88143L19.7055 9.55909ZM19.7709 9.88959C19.765 9.77124 19.7413 9.65605 19.7015 9.54777L18.7629 9.89275C18.7679 9.90635 18.7712 9.92177 18.7721 9.9386L19.7709 9.88959ZM19.4296 10.7009C19.6333 10.5111 19.7854 10.2254 19.771 9.89251L18.7719 9.93568C18.7718 9.93344 18.7726 9.93449 18.77 9.94028C18.767 9.94693 18.7603 9.95774 18.7478 9.96934L19.4296 10.7009ZM19.4336 10.6974L19.4423 10.6887L18.7352 9.98158L18.7265 9.99025L19.4336 10.6974ZM18.7298 11.4037C18.9648 11.1713 19.2045 10.9344 19.4394 10.6914L18.7207 9.99619C18.4947 10.2298 18.263 10.459 18.0266 10.6927L18.7298 11.4037ZM18.3789 11.752C18.495 11.636 18.6118 11.5204 18.7298 11.4037L18.0266 10.6927C17.909 10.8091 17.7901 10.9266 17.6718 11.0449L18.3789 11.752ZM16.2129 13.9181L18.3789 11.752L17.6718 11.0449L15.5058 13.211L16.2129 13.9181ZM13.6934 16.4376L16.2129 13.9181L15.5058 13.211L12.9863 15.7305L13.6934 16.4376ZM11.6192 18.5118L13.6934 16.4376L12.9863 15.7305L10.912 17.8047L11.6192 18.5118Z" fill="#0B0A0A" mask="url(#path-1-outside-1_7286_91)"/>
</svg>
