<svg width="28" height="28" viewBox="0 0 28 28" fill="none" xmlns="http://www.w3.org/2000/svg">
<path d="M13.0574 7.72416C13.181 7.59992 13.3278 7.50132 13.4896 7.43403C13.6514 7.36675 13.8249 7.33212 14.0001 7.33212C14.1753 7.33212 14.3488 7.36675 14.5106 7.43403C14.6723 7.50132 14.8192 7.59992 14.9427 7.72416L20.6001 13.3815C20.7274 13.5045 20.829 13.6516 20.8989 13.8143C20.9688 13.977 21.0055 14.1519 21.0071 14.329C21.0086 14.506 20.9749 14.6816 20.9078 14.8454C20.8408 15.0093 20.7418 15.1582 20.6166 15.2834C20.4914 15.4085 20.3425 15.5075 20.1787 15.5746C20.0148 15.6416 19.8393 15.6754 19.6622 15.6738C19.4852 15.6723 19.3102 15.6355 19.1475 15.5656C18.9849 15.4958 18.8377 15.3942 18.7147 15.2668L15.3334 11.8855V19.3335C15.3334 19.6871 15.1929 20.0263 14.9429 20.2763C14.6928 20.5264 14.3537 20.6668 14.0001 20.6668C13.6465 20.6668 13.3073 20.5264 13.0573 20.2763C12.8072 20.0263 12.6667 19.6871 12.6667 19.3335V11.8855L9.28542 15.2668C9.16242 15.3942 9.01529 15.4958 8.85262 15.5656C8.68995 15.6355 8.51499 15.6723 8.33795 15.6738C8.16091 15.6754 7.98534 15.6416 7.82148 15.5746C7.65761 15.5075 7.50874 15.4085 7.38355 15.2834C7.25836 15.1582 7.15936 15.0093 7.09232 14.8454C7.02528 14.6816 6.99154 14.506 6.99308 14.329C6.99462 14.1519 7.0314 13.977 7.10128 13.8143C7.17116 13.6516 7.27273 13.5045 7.40008 13.3815L13.0574 7.72416V7.72416ZM14.0001 0.666829C6.63608 0.666829 0.666748 6.63616 0.666748 14.0002C0.666748 21.3642 6.63608 27.3335 14.0001 27.3335C21.3641 27.3335 27.3334 21.3642 27.3334 14.0002C27.3334 6.63616 21.3641 0.666829 14.0001 0.666829Z" fill="#988265"/>
</svg>
